<?xml version="1.0" encoding="utf-8"?>
<!-- Generator: Adobe Illustrator 24.1.3, SVG Export Plug-In . SVG Version: 6.00 Build 0)  -->
<svg version="1.1" id="Layer_1" xmlns="http://www.w3.org/2000/svg" xmlns:xlink="http://www.w3.org/1999/xlink" x="0px" y="0px"
	 width="299px" height="50px" viewBox="0 0 299 50" style="enable-background:new 0 0 299 50;" xml:space="preserve">
<style type="text/css">
	.st0{fill:#004B96;}
</style>
<g>
	<g>
		<path class="st0" d="M6.6,21.7c-3.7,0-6.6-2.1-6.6-6.9c0-4.4,2.3-7.4,5.8-7.4c3.8,0,5.3,3.5,5.3,6.5c0,0.3,0,0.7,0,1H2.4
			c0.1,3.6,1.7,5.2,4.8,5.2c1.5,0,3.1-0.4,3.6-0.7v1.4C10.2,21.1,8.5,21.7,6.6,21.7z M8.8,13.4C8.8,11.2,8,9,5.7,9
			c-1.8,0-3.3,1.5-3.3,4.8L8.8,13.4z"/>
		<path class="st0" d="M14.5,2.1c2.4,0,5.4,0,7.2,0.4c1.6,0.4,4.4,1.2,4.4,4.7c0,2.7-2,4-4,4.4v0.1c2.1,0.3,4.7,1.5,4.7,4.6
			c0,2.9-1.9,4.3-4.4,4.9c-2.1,0.5-5.6,0.4-7.8,0.4V2.1z M19.5,10.7c0.7,0,1.4-0.1,1.9-0.2c1.5-0.5,2.3-1.6,2.3-3.2
			c0-2.8-2.3-3.3-3.5-3.5c-0.8-0.2-2.1-0.2-3.3-0.2v7.3L19.5,10.7z M21.1,19.6c1.2-0.3,3.1-0.9,3.1-3.6c0-2-1.2-3-2.8-3.4
			c-0.6-0.2-1.2-0.2-1.9-0.2h-2.7V20C18.1,20,19.9,19.9,21.1,19.6z"/>
		<path class="st0" d="M30,3.3c0-0.8,0.7-1.5,1.5-1.5c0.9,0,1.5,0.6,1.5,1.5s-0.6,1.5-1.5,1.5C30.7,4.8,30,4.1,30,3.3z M30.4,7.9
			h2.3v13.6h-2.3V7.9z"/>
		<path class="st0" d="M36,14.6c0-4.1,2.6-7.1,6.7-7.1c4.1,0,6.6,3.1,6.6,7.1c0,4.1-2.6,7.1-6.7,7.1C38.5,21.7,36,18.7,36,14.6z
			 M46.9,14.6c0-3.5-1.7-5.6-4.2-5.6c-2.6,0-4.2,2.1-4.2,5.6c0,3.5,1.7,5.6,4.2,5.6C45.2,20.2,46.9,18.1,46.9,14.6z"/>
		<path class="st0" d="M53.8,2.1h2.9L62,18.8H62l5.1-16.8h2.8L72,21.4h-2.4L68.3,4.3h-0.1l-0.9,4.4l-4.1,12.8h-2.4L56.5,8.6l-1-4.4
			h-0.1l-0.8,17.2h-2.4L53.8,2.1z"/>
		<path class="st0" d="M81.4,21.7c-3.7,0-6.6-2.1-6.6-6.9c0-4.4,2.3-7.4,5.8-7.4c3.8,0,5.3,3.5,5.3,6.5c0,0.3,0,0.7,0,1h-8.8
			c0.1,3.6,1.7,5.2,4.8,5.2c1.5,0,3.1-0.4,3.6-0.7v1.4C85,21.1,83.3,21.7,81.4,21.7z M83.6,13.4c0-2.2-0.8-4.4-3.1-4.4
			c-1.8,0-3.3,1.5-3.3,4.8L83.6,13.4z"/>
		<path class="st0" d="M97.9,19.4L97.9,19.4c-1.1,1.3-2.7,2.4-4.6,2.4c-2.9,0-5.3-2.4-5.3-6.9c0-4.6,2.6-7.4,5.7-7.4
			c1.7,0,3.1,0.9,3.8,1.6h0.1V0h2.3v17.6c0,1,0.3,1.8,1.3,2.1l-0.7,2C98.9,21.4,98.1,20.4,97.9,19.4z M97.6,10.7
			c-1-0.9-2.2-1.5-3.5-1.5c-2.2,0-3.8,2.1-3.8,5.4c0,3.2,1.3,5.2,3.5,5.2c1.5,0,2.8-1,3.8-2.1V10.7z"/>
		<path class="st0" d="M103.9,3.3c0-0.8,0.7-1.5,1.5-1.5c0.9,0,1.5,0.6,1.5,1.5s-0.6,1.5-1.5,1.5C104.6,4.8,103.9,4.1,103.9,3.3z
			 M104.3,7.9h2.3v13.6h-2.3V7.9z"/>
		<path class="st0" d="M116.6,21.7c-3.9,0-6.7-2.4-6.7-6.7c0-4.5,2.8-7.5,6.9-7.5c0.8,0,1.8,0.2,2.5,0.4v2c-1.3-0.3-2.5-0.5-3.5-0.5
			c-0.9,0-1.7,0.2-2,0.2c-0.9,0.9-1.5,2.9-1.5,4.6c0,4.3,2.1,5.8,4.9,5.8c0.8,0,1.8-0.1,2.5-0.3v1.5
			C118.8,21.6,117.5,21.7,116.6,21.7z"/>
		<path class="st0" d="M122.3,3.3c0-0.8,0.7-1.5,1.5-1.5c0.9,0,1.5,0.6,1.5,1.5s-0.6,1.5-1.5,1.5C122.9,4.8,122.3,4.1,122.3,3.3z
			 M122.6,7.9h2.3v13.6h-2.3V7.9z"/>
		<path class="st0" d="M129.5,7.9h2.3v2h0.1c1.2-1.3,2.7-2.4,4.7-2.4c1.6,0,2.8,0.7,3.5,1.8c0.5,0.8,0.8,1.8,0.8,3.2v8.9h-2.3v-8.6
			c0-1.1-0.1-1.7-0.4-2.2c-0.5-0.9-1.4-1.3-2.4-1.3c-1.4,0-2.8,0.9-3.8,1.9v10.2h-2.3V7.9z"/>
		<path class="st0" d="M150.4,21.7c-3.7,0-6.6-2.1-6.6-6.9c0-4.4,2.3-7.4,5.8-7.4c3.8,0,5.3,3.5,5.3,6.5c0,0.3,0,0.7,0,1h-8.8
			c0.1,3.6,1.7,5.2,4.8,5.2c1.5,0,3.1-0.4,3.6-0.7v1.4C154,21.1,152.3,21.7,150.4,21.7z M152.6,13.4c0-2.2-0.8-4.4-3.1-4.4
			c-1.8,0-3.3,1.5-3.3,4.8L152.6,13.4z"/>
	</g>
	<g>
		<g>
			<g>
				<path d="M0.5,32.6c1.8,0,3.5,0,4.7,0.3c1.4,0.4,3,1.2,3,3.3c0,1.7-1.1,3-3.2,3.5C4.1,40,3.1,40.1,2,40.1v5.2H0.5V32.6z
					 M4.5,38.8c1.5-0.5,2.1-1.4,2.1-2.6c0-1.6-1.2-2.3-2.3-2.5c-0.8-0.2-1.6-0.2-2.2-0.2v5.6C2.9,39.1,3.8,39,4.5,38.8z"/>
				<path d="M9.1,43.1c0-2.2,2-3,5.2-3.1v-1.1c0-1.2-0.8-1.6-1.8-1.6c-1,0-2,0.3-2.8,0.7v-1c0.9-0.5,2.1-0.9,3.1-0.9
					c1.5,0,3,0.6,3,2.7v4c0,0.7,0.2,1.1,0.9,1.3l-0.5,1.3c-1.1-0.2-1.6-0.9-1.7-1.5h0c-0.8,1-1.7,1.5-2.8,1.5
					C10.3,45.5,9.1,44.8,9.1,43.1z M14.3,43.1v-2.2c-2.5,0.1-3.6,0.8-3.6,2c0,0.9,0.5,1.4,1.4,1.4C13,44.4,13.8,43.9,14.3,43.1z"/>
				<path d="M18.6,36.4h1.5v1.4h0c0.6-0.8,1.4-1.7,2.7-1.7v1.5c-1.1,0-1.9,0.2-2.8,1v6.6h-1.5V36.4z"/>
				<path d="M27.4,45.4c-1.3,0-2.3-0.5-2.3-2.2v-5.7L23.3,37v-0.6h1.8v-2.5h1.5v2.5h2.6v1.1h-2.6v5.6c0,1,0.6,1.2,1.3,1.2
					c0.5,0,1.1-0.1,1.4-0.2V45C29,45.2,28.1,45.4,27.4,45.4z"/>
				<path d="M33.9,40.8c0-2.7,1.7-4.7,4.4-4.7c2.7,0,4.3,2,4.3,4.7c0,2.7-1.7,4.7-4.4,4.7C35.6,45.5,33.9,43.5,33.9,40.8z M41,40.8
					c0-2.3-1.1-3.7-2.8-3.7c-1.7,0-2.8,1.4-2.8,3.7c0,2.3,1.1,3.7,2.8,3.7C39.9,44.5,41,43.1,41,40.8z"/>
				<path d="M45.2,37.5L43.4,37v-0.6h1.8V35c0-2.6,1.5-3.9,3.6-3.9c0.3,0,0.7,0,1,0.1v1.3c-0.5-0.1-0.9-0.1-1.3-0.1
					c-0.8,0-1.4,0.2-1.9,0.6l0,1.6v1.8H49v1.1h-2.3v7.8h-1.5V37.5z"/>
			</g>
		</g>
		<g>
			<g>
				<path d="M69.5,39.1v4.8c0,0.6,0.3,1.1,0.6,1.4H67c0.3-0.3,0.6-0.8,0.6-1.4v-9.5c0-0.6-0.3-1.1-0.6-1.5h3.2
					c-0.4,0.4-0.6,0.9-0.6,1.5v3.9h6.5v-3.9c0-0.6-0.2-1.1-0.6-1.5h3.1c-0.4,0.4-0.6,0.9-0.6,1.5v9.5c0,0.6,0.3,1.1,0.6,1.4h-3.2
					c0.4-0.3,0.6-0.9,0.6-1.5v-4.7H69.5z"/>
				<path d="M89.7,45.3h-8.2c0.4-0.3,0.6-0.8,0.6-1.4v-9.5c0-0.6-0.3-1.1-0.6-1.5H90l-0.5,1.3c-0.4-0.4-0.8-0.5-1.5-0.5h-4v4.6
					c1.2,0,2.4,0,3.7,0c0.5,0,0.9-0.1,1.4-0.2l-0.6,1.4c-0.4-0.3-0.8-0.4-1.4-0.4H84v5.4c0.8,0,1.1,0,1.9,0c0.4,0,3.3,0,4.5-0.9
					L89.7,45.3z"/>
				<path d="M158.5,45.3h-8.2c0.4-0.3,0.6-0.8,0.6-1.4v-9.5c0-0.6-0.3-1.1-0.6-1.5h8.5l-0.5,1.3c-0.4-0.4-0.8-0.5-1.5-0.5h-4v4.6
					c1.2,0,2.4,0,3.7,0c0.5,0,0.9-0.1,1.4-0.2l-0.6,1.4c-0.4-0.3-0.8-0.4-1.4-0.4h-3.1v5.4c0.8,0,1.1,0,1.9,0c0.4,0,3.3,0,4.5-0.9
					L158.5,45.3z"/>
				<path d="M100.3,34.4v3.9v0.8v5.4c0.8,0,1.3,0,2.1,0c0.4,0,3.2,0,4.4-1l-0.8,1.8h-8.3c0.4-0.3,0.6-0.8,0.6-1.4v-9.5
					c0-0.6-0.3-1.1-0.6-1.5c0.1,0,3.1,0,3.2,0C100.6,33.3,100.3,33.9,100.3,34.4z"/>
				<path d="M111.6,41.2c-0.2,0.5-1,2.8-1,2.8c-0.2,0.5-0.2,0.9,0,1.4h-2.1c0.5-0.5,0.9-1.1,1.1-1.5l3.9-9.5
					c0.3-0.7-0.1-1.3-0.3-1.4h2.6l4.6,11c0.2,0.4,0.5,0.9,1,1.4h-3c0.2-0.5,0.2-0.9,0-1.4c0,0-1-2.4-1.2-2.8H111.6z M116.8,40.4
					l-2.5-5.9l-2.4,5.9H116.8z"/>
				<path d="M134.1,34.4v10.9h-0.5L124.7,35v8.9c0,0.6,0.3,1.1,0.6,1.4h-2.1c0.4-0.3,0.6-0.9,0.6-1.4v-9.4c0-0.5-0.1-0.7-0.5-1.1
					c-0.2-0.2-0.4-0.3-0.5-0.4h2.5l7.9,9.3v-7.8c0-0.6-0.2-1.1-0.6-1.5h2.1C134.3,33.3,134.1,33.8,134.1,34.4z"/>
				<path d="M145.6,45.4c-0.7,0.1-1,0.1-1.9,0.1c-4.2,0-6.9-2.9-6.9-6.3c0-3.9,3-6.5,6.9-6.5c0.6,0,1.1,0,1.5,0.1
					c0.6,0.1,1,0.1,1.5,0.3l0.6,1.6c-0.6-0.6-1.9-1.2-3.6-1.2c-3.2,0-4.8,2.7-4.8,5.7c0,3.1,1.6,5.6,4.9,5.6c1.3,0,2.8-0.5,3.7-1.4
					c-0.4,1-0.6,1.5-0.7,1.7C146.6,45.2,146.3,45.3,145.6,45.4z"/>
				<path d="M64.2,33.7l-4.1,0l0,10.5c0,0.5,0.4,0.9,0.6,1.1h-3.2c0.3-0.2,0.6-0.6,0.6-1.1l0-10.5h-2.9c-0.5,0-1.1,0.1-1.6,0.4
					l0.5-1.2h8.9c0.7,0,1.2-0.1,1.6-0.3L64.2,33.7z"/>
				<path d="M171.7,33.7l-4.1,0l0,10.5c0,0.5,0.4,0.9,0.6,1.1h-3.2c0.3-0.2,0.6-0.6,0.6-1.1l0-10.5h-2.9c-0.5,0-1.1,0.1-1.6,0.4
					l0.5-1.2h8.9c0.7,0,1.2-0.1,1.6-0.3L171.7,33.7z"/>
			</g>
			<g>
				<path d="M178.8,32.6c2.3,0,3.7,0.2,5,0.6c2.4,0.8,3.3,2.8,3.3,5c0,2.7-1.2,5.5-4.5,6.6c-1.3,0.4-2.9,0.5-5,0.5L178.8,32.6z
					 M182.2,43.7c2.4-1,3.3-3.2,3.3-5.6c0-1.6-0.5-3.1-2.1-3.9c-0.9-0.5-2-0.7-3.1-0.7l-1.1,10.8C180.3,44.3,181.3,44.1,182.2,43.7z
					"/>
				<path d="M189,45.4h-0.4l0.9-8.9l1.1-0.2h0.4l-0.9,8.9L189,45.4z M189.6,33.4c0-0.6,0.5-1,1.1-1c0.6,0,0.9,0.4,0.9,0.9
					c0,0.6-0.5,1.1-1,1.1C189.9,34.4,189.6,33.9,189.6,33.4z"/>
				<path d="M192.5,43.7c0.8,0.4,1.7,0.6,2.4,0.6c0.6,0,1.1-0.1,1.4-0.2c0.2-0.3,0.3-0.7,0.3-1c0-2.1-3.8-1.5-3.8-4.2
					c0-1.8,1.6-2.7,3.1-2.7c0.9,0,1.7,0.2,2.3,0.5l-0.3,1.3c-0.7-0.4-1.5-0.6-2.2-0.6c-0.5,0-0.9,0.1-1.2,0.2
					c-0.1,0.2-0.3,0.5-0.3,0.9c0,1.9,3.8,1.5,3.8,4.2c0,2.2-2.1,2.9-3.4,2.9c-0.9,0-1.7-0.2-2.3-0.5L192.5,43.7z"/>
				<path d="M202.2,45.5c-1.4,0-2.8-1-2.8-3.5c0-2.3,1.1-5.9,4.2-5.9c0.7,0,1.4,0.2,1.9,0.4l-0.2,1.3c-0.8-0.4-1.5-0.6-2.1-0.6
					c-0.5,0-0.9,0.1-1.2,0.3c-0.6,1.1-1.1,2.6-1.1,4.2c0,1.9,0.8,2.4,1.6,2.4c0.8,0,1.4-0.5,2-1.4l0.8,0.5
					C204.6,44.7,203.5,45.5,202.2,45.5z"/>
				<path d="M206.6,41.9c0-2.1,1-5.8,4.4-5.8c1.6,0,3.2,1,3.2,3.6c0,2.1-1,5.8-4.4,5.8C208.1,45.5,206.6,44.5,206.6,41.9z M211.4,44
					c0.8-1.2,1.1-2.8,1.1-4.3c0-1.8-0.8-2.5-2-2.5c-0.4,0-0.9,0.1-1.3,0.3c-0.8,1.2-1.2,2.8-1.2,4.3c0,1.7,0.8,2.4,2,2.4
					C210.6,44.3,211,44.2,211.4,44z"/>
				<path d="M215.4,36.5l1.6-0.2c0.6,3,1,5.5,1.3,7.7h0c1.4-1.8,2.5-3.7,2.5-5.9c0-0.5-0.1-1.1-0.2-1.7l1.6-0.4
					c0.2,0.6,0.2,1.2,0.2,1.7c0,2.6-1.5,4.9-4.1,7.5h-1C216.7,42.3,216.2,39.9,215.4,36.5z"/>
				<path d="M226.4,45.5c-1.5,0-2.8-1-2.8-3.5c0-2.3,1.1-5.9,4.3-5.9c1.6,0,2.4,0.9,2.4,1.9c0,1.9-2.1,2.9-5.2,3.2
					c0,0.2,0,0.5,0,0.7c0,1.8,0.8,2.4,1.5,2.4c0.8,0,1.5-0.5,2.1-1.4l0.8,0.5C228.8,44.7,227.7,45.5,226.4,45.5z M228.8,38.2
					c0-0.6-0.4-1-1.4-1c-0.4,0-0.9,0.1-1.2,0.3c-0.5,0.8-0.9,1.8-1,2.8C227.2,40.2,228.8,39.3,228.8,38.2z"/>
				<path d="M232.2,36.5l1.1-0.2h0.4l-0.2,1.6h0c0.6-1.1,1.5-1.8,2.7-1.8l-0.2,1.6c-1.4,0-2.2,0.6-2.7,1.3l-0.6,6.2l-1.1,0.2h-0.4
					L232.2,36.5z"/>
				<path d="M239.5,45h-0.3c-0.8-2.9-1.5-5.5-2.5-8.5l1.6-0.2c0.7,2.9,1.3,5.5,1.9,7.9h0c1-1.5,2-3.7,2-5.9c0-0.6-0.1-1.2-0.2-1.7
					l1.6-0.4c0.1,0.5,0.2,1.1,0.2,1.7c0,4.8-4.2,9.6-8,12.3h-0.3l-0.5-1.2C236.7,48,238.4,46.5,239.5,45z"/>
				<path d="M247.8,43.9c1,0.3,1.9,0.5,2.7,0.5c2.1,0,3.2-0.9,3.2-2.4c0-2.9-5-2.4-5-6.1c0-2.1,1.6-3.5,4-3.5c1,0,2.2,0.2,3,0.5
					l-0.2,1.1c-0.9-0.3-1.7-0.5-2.6-0.5c-1.4,0-2.6,0.7-2.6,2.1c0,2.9,5,2.4,5,6.1c0,2.5-2,3.8-4.6,3.8c-1.2,0-2.3-0.2-3-0.5
					L247.8,43.9z"/>
				<path d="M259.5,45.5c-1.4,0-2.8-1-2.8-3.5c0-2.3,1.1-5.9,4.2-5.9c0.7,0,1.4,0.2,1.9,0.4l-0.2,1.3c-0.8-0.4-1.5-0.6-2.1-0.6
					c-0.5,0-0.9,0.1-1.2,0.3c-0.6,1.1-1.1,2.6-1.1,4.2c0,1.9,0.8,2.4,1.6,2.4c0.8,0,1.4-0.5,2-1.4l0.8,0.5
					C261.9,44.7,260.9,45.5,259.5,45.5z"/>
				<path d="M264.4,45.4H264l0.9-8.9l1.1-0.2h0.4l-0.9,8.9L264.4,45.4z M265,33.4c0-0.6,0.5-1,1.1-1c0.6,0,0.9,0.4,0.9,0.9
					c0,0.6-0.5,1.1-1,1.1C265.4,34.4,265,33.9,265,33.4z"/>
				<path d="M270.7,45.5c-1.5,0-2.8-1-2.8-3.5c0-2.3,1.1-5.9,4.3-5.9c1.6,0,2.4,0.9,2.4,1.9c0,1.9-2.1,2.9-5.2,3.2
					c0,0.2,0,0.5,0,0.7c0,1.8,0.8,2.4,1.5,2.4c0.8,0,1.5-0.5,2.1-1.4l0.8,0.5C273.1,44.7,272,45.5,270.7,45.5z M273.2,38.2
					c0-0.6-0.4-1-1.4-1c-0.4,0-0.9,0.1-1.2,0.3c-0.5,0.8-0.9,1.8-1,2.8C271.6,40.2,273.2,39.3,273.2,38.2z"/>
				<path d="M276.6,36.5l1.1-0.2h0.4l-0.2,1.5h0c0.7-1,1.7-1.7,2.9-1.7c1.2,0,2.5,0.6,2.5,2.5c0,0.2,0,0.5-0.1,1l-0.6,5.5l-1.1,0.2
					h-0.4l0.6-5.6c0-0.3,0-0.7,0-0.8c0-1.1-0.5-1.7-1.5-1.7c-1.2,0-2.1,1-2.5,1.7l-0.6,6.1l-1.1,0.2h-0.4L276.6,36.5z"/>
				<path d="M287.9,45.5c-1.4,0-2.8-1-2.8-3.5c0-2.3,1.1-5.9,4.2-5.9c0.7,0,1.4,0.2,1.9,0.4l-0.2,1.3c-0.8-0.4-1.5-0.6-2.1-0.6
					c-0.5,0-0.9,0.1-1.2,0.3c-0.6,1.1-1.1,2.6-1.1,4.2c0,1.9,0.8,2.4,1.6,2.4c0.8,0,1.4-0.5,2-1.4l0.8,0.5
					C290.2,44.7,289.2,45.5,287.9,45.5z"/>
				<path d="M295,45.5c-1.5,0-2.8-1-2.8-3.5c0-2.3,1.1-5.9,4.3-5.9c1.6,0,2.4,0.9,2.4,1.9c0,1.9-2.1,2.9-5.2,3.2c0,0.2,0,0.5,0,0.7
					c0,1.8,0.8,2.4,1.5,2.4c0.8,0,1.5-0.5,2.1-1.4l0.8,0.5C297.4,44.7,296.3,45.5,295,45.5z M297.5,38.2c0-0.6-0.4-1-1.4-1
					c-0.4,0-0.9,0.1-1.2,0.3c-0.5,0.8-0.9,1.8-1,2.8C295.9,40.2,297.5,39.3,297.5,38.2z"/>
			</g>
		</g>
	</g>
</g>
</svg>
