<?xml version="1.0" encoding="utf-8"?>
<!-- Generator: Adobe Illustrator 21.1.0, SVG Export Plug-In . SVG Version: 6.00 Build 0)  -->
<svg version="1.1" id="Layer_1" xmlns="http://www.w3.org/2000/svg" xmlns:xlink="http://www.w3.org/1999/xlink" x="0px" y="0px"
	 width="169.5px" height="52.7px" viewBox="0 0 169.5 52.7" style="enable-background:new 0 0 169.5 52.7;" xml:space="preserve">
<style type="text/css">
	.st0{fill:#1D1D1B;}
	.st1{fill:#76BEE7;}
</style>
<g>
	<g>
		<path class="st0" d="M22.6,9.3v6.9c0,0.9,0.4,1.6,0.9,2H19c0.5-0.5,0.9-1.2,0.9-2V2.6c0-0.9-0.4-1.6-0.9-2.1h4.5
			C23,1,22.6,1.8,22.6,2.6v5.6H32V2.6c0-0.9-0.3-1.6-0.9-2.1h4.5c-0.5,0.5-0.9,1.3-0.9,2.1v13.6c0,0.8,0.4,1.6,0.9,2h-4.5
			c0.5-0.5,0.9-1.2,0.9-2.1V9.3C32,9.3,22.6,9.3,22.6,9.3z"/>
		<path class="st0" d="M51.6,18.2H39.8c0.5-0.5,0.9-1.2,0.9-2V2.6c0-0.8-0.4-1.6-0.9-2.1H52l-0.7,1.8c-0.6-0.5-1.2-0.7-2.1-0.7h-5.7
			v6.6c1.7,0,3.4,0,5.3,0c0.7,0,1.3-0.1,2.1-0.3l-0.8,2C49.6,9.4,49,9.3,48,9.3h-4.5V17c1.1,0,1.6,0,2.7,0c0.5,0,4.7,0,6.5-1.2
			L51.6,18.2z"/>
		<path class="st0" d="M150.1,18.2h-11.8c0.5-0.5,0.9-1.2,0.9-2V2.6c0-0.8-0.4-1.6-0.9-2.1h12.2l-0.7,1.8c-0.6-0.5-1.2-0.7-2.1-0.7
			H142v6.6c1.7,0,3.4,0,5.3,0c0.7,0,1.3-0.1,2.1-0.3l-0.8,2c-0.5-0.5-1.1-0.6-2.1-0.6H142V17c1.1,0,1.6,0,2.7,0c0.5,0,4.7,0,6.5-1.2
			L150.1,18.2z"/>
		<path class="st0" d="M66.7,2.6v5.6v1.1V17c1.2,0,1.9,0,3,0c0.5,0,4.5-0.1,6.4-1.4L75,18.2H63.1c0.5-0.5,0.9-1.2,0.9-2.1V2.6
			c0-0.8-0.4-1.6-0.8-2.1c0.2,0,4.4,0,4.5,0C67.2,1,66.7,1.8,66.7,2.6z"/>
		<path class="st0" d="M82.9,12.2c-0.3,0.7-1.5,3.9-1.5,3.9c-0.3,0.7-0.3,1.3,0,2h-3.1c0.7-0.7,1.3-1.5,1.5-2.1l5.6-13.6
			c0.4-1-0.1-1.8-0.5-2h3.7l6.7,15.8c0.3,0.6,0.7,1.3,1.5,2h-4.3c0.3-0.7,0.3-1.3,0-2c0,0-1.5-3.5-1.7-3.9h-7.9V12.2z M90.4,11.1
			l-3.6-8.5l-3.4,8.5H90.4z"/>
		<path class="st0" d="M115.2,2.6v15.6h-0.8L101.7,3.4v12.8c0,0.8,0.4,1.6,0.9,2h-3.1c0.5-0.5,0.9-1.2,0.9-2V2.7
			c0-0.8-0.2-1.1-0.7-1.6c-0.3-0.3-0.5-0.5-0.7-0.6h3.6l11.3,13.3V2.6c0-0.9-0.3-1.6-0.8-2.1h3C115.5,0.9,115.2,1.7,115.2,2.6z"/>
		<path class="st0" d="M131.7,18.3c-1,0.1-1.4,0.2-2.7,0.2c-5.9,0-9.9-4.1-9.9-9.1c0-5.6,4.3-9.3,9.9-9.3c0.9,0,1.6,0,2.2,0.1
			c0.8,0.1,1.4,0.2,2.2,0.4l0.8,2.3c-0.9-0.8-2.6-1.7-5.2-1.7c-4.6,0-6.8,3.9-6.8,8.2c0,4.5,2.4,8.1,7,8.1c1.8,0,4-0.7,5.3-2
			c-0.5,1.4-0.8,2.1-0.9,2.5C133,18.1,132.6,18.2,131.7,18.3z"/>
		<path class="st0" d="M15,1.6H9.1v15c0,0.8,0.6,1.4,0.9,1.6H5.5c0.4-0.3,0.9-0.8,0.9-1.6v-15H2.2C1.5,1.6,0.6,1.8,0,2.1l0.7-1.7
			h12.7c1,0,1.7-0.1,2.3-0.4L15,1.6z"/>
		<path class="st0" d="M169,1.6h-5.9v15c0,0.8,0.6,1.4,0.9,1.6h-4.5c0.4-0.3,0.8-0.8,0.8-1.6v-15h-4.2c-0.7,0-1.6,0.2-2.3,0.5
			l0.7-1.7h12.7c1,0,1.7-0.1,2.3-0.4L169,1.6z"/>
	</g>
	<g>
		<path class="st1" d="M2.1,27.7c2.2,0,5.5-0.1,8,0.9c2.1,0.7,5.3,2.7,5.3,8.2c0,5-2.5,7.2-5.1,8.2c-2.4,1-5.9,0.9-8.2,0.9
			C2.1,45.9,2.1,27.7,2.1,27.7z M8.3,44c2.9-0.9,4.8-3.1,4.8-7.2c0-4.6-2.2-6.3-4.2-7c-1.7-0.7-3.6-0.7-4.5-0.7v15.5
			C5.3,44.5,6.9,44.5,8.3,44z"/>
		<path class="st1" d="M18.6,28.9c0-0.8,0.6-1.4,1.4-1.4s1.4,0.6,1.4,1.4s-0.6,1.4-1.4,1.4C19.2,30.3,18.6,29.7,18.6,28.9z
			 M18.9,33.2h2.2v12.7h-2.2V33.2z"/>
		<path class="st1" d="M24.8,50.5c1.1,0.3,2.2,0.6,3.8,0.6c1.9,0,3.4-0.5,4.1-1.8c0.4-0.6,0.5-1.4,0.5-2.6V44h-0.1
			c-0.8,1.2-2.3,2.2-4,2.2c-2.7,0-4.9-2.2-4.9-6.5s2.5-6.9,5.3-6.9c1.7,0,3,0.9,3.9,1.8h0.1l0.9-1.8h1.1v13.7c0,1.7-0.3,2.9-0.9,3.8
			c-1,1.6-2.9,2.4-5.5,2.4c-1.7,0-3.2-0.4-4.1-0.8v-1.4H24.8z M33.2,35.9c-0.9-0.9-2.2-1.4-3.3-1.4c-2.1,0-3.5,2-3.5,5.2
			c0,3,1.2,4.9,3.2,4.9c1.5,0,2.7-0.9,3.6-2V35.9z"/>
		<path class="st1" d="M39,28.9c0-0.8,0.6-1.4,1.4-1.4c0.8,0,1.4,0.6,1.4,1.4s-0.6,1.4-1.4,1.4C39.6,30.3,39,29.7,39,28.9z
			 M39.4,33.2h2.2v12.7h-2.2V33.2z"/>
		<path class="st1" d="M49.7,46.1c-1.9,0-3.3-0.7-3.3-3.1v-8.2l-2.6-0.7v-0.9h2.6v-3.6h2.2v3.6h3.8v1.6h-3.8v8
			c0,1.4,0.9,1.7,1.9,1.7c0.7,0,1.5-0.1,2-0.3v1.3C52,45.8,50.7,46.1,49.7,46.1z"/>
		<path class="st1" d="M54.1,42.7c0-3.2,2.8-4.3,7.4-4.4v-1.6c0-1.8-1.1-2.3-2.6-2.3c-1.4,0-2.8,0.4-4,1V34c1.3-0.8,3-1.2,4.5-1.2
			c2.2,0,4.3,0.8,4.3,3.8v5.7c0,0.9,0.3,1.6,1.3,1.9l-0.8,2c-1.6-0.3-2.3-1.2-2.5-2.1h-0.1c-1.1,1.5-2.4,2.2-4.1,2.2
			C55.8,46.2,54.1,45.2,54.1,42.7z M61.4,42.7v-3.1c-3.6,0.1-5.1,1.1-5.1,2.9c0,1.2,0.7,2.1,2,2.1C59.6,44.6,60.7,43.9,61.4,42.7z"
			/>
		<path class="st1" d="M67.6,25.8h2.2v20.1h-2.2V25.8z"/>
		<path class="st1" d="M79.2,27.7h2.2v8.1H90v-8.1h2.2v18.2H90v-8.4h-8.6v8.4h-2.2C79.2,45.9,79.2,27.7,79.2,27.7z"/>
		<path class="st1" d="M101.6,46.2c-3.5,0-6.2-2-6.2-6.5c0-4.1,2.2-6.9,5.5-6.9c3.6,0,5,3.3,5,6.1c0,0.3,0,0.6,0,0.9h-8.2
			c0.1,3.4,1.6,4.9,4.5,4.9c1.4,0,2.9-0.4,3.4-0.6v1.3C105,45.6,103.4,46.2,101.6,46.2z M103.7,38.4c0-2.1-0.8-4.1-2.9-4.1
			c-1.7,0-3.1,1.4-3.1,4.5L103.7,38.4z"/>
		<path class="st1" d="M107.7,42.7c0-3.2,2.8-4.3,7.4-4.4v-1.6c0-1.8-1.1-2.3-2.6-2.3c-1.4,0-2.8,0.4-4,1V34c1.3-0.8,3-1.2,4.5-1.2
			c2.2,0,4.3,0.8,4.3,3.8v5.7c0,0.9,0.3,1.6,1.3,1.9l-0.7,1.9c-1.6-0.3-2.3-1.2-2.5-2.1h-0.1c-1.1,1.5-2.4,2.2-4.1,2.2
			C109.4,46.2,107.7,45.2,107.7,42.7z M115.1,42.7v-3.1c-3.6,0.1-5.1,1.1-5.1,2.9c0,1.2,0.7,2.1,2,2.1
			C113.2,44.6,114.4,43.9,115.1,42.7z"/>
		<path class="st1" d="M121.2,25.8h2.2v20.1h-2.2V25.8z"/>
		<path class="st1" d="M131.3,46.1c-1.9,0-3.3-0.7-3.3-3.1v-8.2l-2.6-0.7v-0.9h2.6v-3.6h2.2v3.6h3.8v1.6h-3.8v8
			c0,1.4,0.9,1.7,1.9,1.7c0.7,0,1.5-0.1,2-0.3v1.3C133.6,45.8,132.4,46.1,131.3,46.1z"/>
		<path class="st1" d="M136.8,25.8h2.2v9.3h0.1c1.1-1.2,2.5-2.2,4.4-2.2c1.5,0,2.6,0.7,3.3,1.7c0.5,0.8,0.7,1.7,0.7,3.1v8.4h-2.2v-8
			c0-1-0.1-1.6-0.4-2.1c-0.5-0.9-1.3-1.2-2.2-1.2c-1.3,0-2.7,0.8-3.6,1.8v9.5h-2.2V25.8H136.8z"/>
	</g>
</g>
</svg>
